<svg xmlns="http://www.w3.org/2000/svg" viewBox="0 0 120 120" width="120" height="120">
  <rect width="120" height="120" rx="18" fill="#f8f0ff"/>
  <rect x="8" y="8" width="104" height="104" rx="14" fill="none" stroke="#d8b8f0" stroke-width="1.5"/>
  <!-- bottle body (flat) -->
  <rect x="32" y="36" width="56" height="62" rx="10" fill="#ede0ff"/>
  <rect x="32" y="36" width="56" height="62" rx="10" fill="none" stroke="#c090e0" stroke-width="1.5"/>
  <!-- flip cap -->
  <rect x="38" y="22" width="44" height="18" rx="7" fill="#d8b8f0"/>
  <rect x="38" y="22" width="44" height="18" rx="7" fill="none" stroke="#b888d8" stroke-width="1.2"/>
  <!-- flip detail -->
  <rect x="56" y="26" width="8" height="10" rx="3" fill="#c090e0"/>
  <!-- label -->
  <rect x="40" y="56" width="40" height="2.5" rx="1.2" fill="#c090e0"/>
  <rect x="42" y="62" width="32" height="2" rx="1" fill="#d4b0e8"/>
  <rect x="42" y="68" width="28" height="2" rx="1" fill="#d4b0e8"/>
  <!-- AHA/BHA dots -->
  <circle cx="44" cy="80" r="4" fill="#c090e0" opacity="0.6"/>
  <circle cx="56" cy="83" r="3" fill="#b070d0" opacity="0.5"/>
  <circle cx="68" cy="79" r="3.5" fill="#c090e0" opacity="0.6"/>
  <circle cx="78" cy="83" r="2.5" fill="#b070d0" opacity="0.5"/>
</svg>
